<?xml version="1.0" encoding="UTF-8" standalone="no"?>
<svg
   xmlns:dc="http://purl.org/dc/elements/1.1/"
   xmlns:cc="http://creativecommons.org/ns#"
   xmlns:rdf="http://www.w3.org/1999/02/22-rdf-syntax-ns#"
   xmlns:svg="http://www.w3.org/2000/svg"
   xmlns="http://www.w3.org/2000/svg"
   xmlns:xlink="http://www.w3.org/1999/xlink"
   xmlns:sodipodi="http://sodipodi.sourceforge.net/DTD/sodipodi-0.dtd"
   xmlns:inkscape="http://www.inkscape.org/namespaces/inkscape"
   version="1.1"
   id="Capa_1"
   x="0px"
   y="0px"
   viewBox="0 0 347.971 347.971"
   style="enable-background:new 0 0 347.971 347.971;"
   xml:space="preserve"
   sodipodi:docname="oscal-club-logo.svg"
   inkscape:version="1.0.1 (3bc2e813f5, 2020-09-07, custom)"><metadata
   id="metadata870"><rdf:RDF><cc:Work
       rdf:about=""><dc:format>image/svg+xml</dc:format><dc:type
         rdf:resource="http://purl.org/dc/dcmitype/StillImage" /><dc:title></dc:title></cc:Work></rdf:RDF></metadata><defs
   id="defs868"><linearGradient
     inkscape:collect="always"
     id="linearGradient980"><stop
       style="stop-color:#800080;stop-opacity:1;"
       offset="0"
       id="stop976" /><stop
       style="stop-color:#800080;stop-opacity:0;"
       offset="1"
       id="stop978" /></linearGradient><linearGradient
     inkscape:collect="always"
     id="linearGradient938"><stop
       style="stop-color:#0000ff;stop-opacity:1;"
       offset="0"
       id="stop934" /><stop
       style="stop-color:#0000ff;stop-opacity:0;"
       offset="1"
       id="stop936" /></linearGradient><linearGradient
     inkscape:collect="always"
     id="linearGradient894"><stop
       style="stop-color:#ff0000;stop-opacity:1;"
       offset="0"
       id="stop890" /><stop
       style="stop-color:#ff0000;stop-opacity:0;"
       offset="1"
       id="stop892" /></linearGradient><linearGradient
     inkscape:collect="always"
     xlink:href="#linearGradient894"
     id="linearGradient896"
     x1="29.873364"
     y1="173.9855"
     x2="92.215767"
     y2="172.83272"
     gradientUnits="userSpaceOnUse" /><linearGradient
     inkscape:collect="always"
     xlink:href="#linearGradient938"
     id="linearGradient940"
     x1="313.78433"
     y1="163.321"
     x2="259.80484"
     y2="163.48418"
     gradientUnits="userSpaceOnUse" /><radialGradient
     inkscape:collect="always"
     xlink:href="#linearGradient980"
     id="radialGradient982"
     cx="89.798969"
     cy="73.471885"
     fx="89.798969"
     fy="73.471885"
     r="144.11204"
     gradientTransform="matrix(1,0,0,1.2072932,84.18643,85.283397)"
     gradientUnits="userSpaceOnUse" /></defs><sodipodi:namedview
   pagecolor="#ffffff"
   bordercolor="#666666"
   borderopacity="1"
   objecttolerance="10"
   gridtolerance="10"
   guidetolerance="10"
   inkscape:pageopacity="0"
   inkscape:pageshadow="2"
   inkscape:window-width="1600"
   inkscape:window-height="849"
   id="namedview866"
   showgrid="false"
   inkscape:zoom="1.9599334"
   inkscape:cx="173.79472"
   inkscape:cy="256.8529"
   inkscape:window-x="0"
   inkscape:window-y="27"
   inkscape:window-maximized="1"
   inkscape:current-layer="layer1" />

<g
   id="g835">
</g>
<g
   id="g837">
</g>
<g
   id="g839">
</g>
<g
   id="g841">
</g>
<g
   id="g843">
</g>
<g
   id="g845">
</g>
<g
   id="g847">
</g>
<g
   id="g849">
</g>
<g
   id="g851">
</g>
<g
   id="g853">
</g>
<g
   id="g855">
</g>
<g
   id="g857">
</g>
<g
   id="g859">
</g>
<g
   id="g861">
</g>
<g
   id="g863">
</g>
<g
   inkscape:groupmode="layer"
   id="layer1"
   inkscape:label="Red Base Layer"
   style="display:inline"><path
     d="M 317.309,54.367 C 257.933,54.367 212.445,37.403 173.98,0 135.519,37.403 90.033,54.367 30.662,54.367 c 0,97.405 -20.155,236.937 143.317,293.604 163.484,-56.666 143.33,-196.198 143.33,-293.604 z m -155.202,171.406 -47.749,-47.756 21.379,-21.378 26.37,26.376 50.121,-50.122 21.378,21.378 z"
     id="path833"
     style="fill:url(#linearGradient896);fill-opacity:1" /></g><g
   inkscape:groupmode="layer"
   id="layer2"
   inkscape:label="Blue Middle Layer"
   style="display:inline"><path
     d="M 317.309,54.367 C 257.933,54.367 212.445,37.403 173.98,0 135.519,37.403 90.033,54.367 30.662,54.367 c 0,97.40499 -20.155,236.93699 143.317,293.60399 163.484,-56.666 143.33,-196.198 143.33,-293.60399 z m -155.202,171.40599 -47.749,-47.756 21.379,-21.378 26.37,26.376 50.121,-50.122 21.378,21.378 z"
     id="path833-5"
     style="fill:url(#linearGradient940);fill-opacity:1" /></g><g
   inkscape:groupmode="layer"
   id="layer3"
   inkscape:label="Purple Top Layer"
   style="display:inline"><path
     d="M 317.309,54.36701 C 257.933,54.36701 212.445,37.40301 173.98,1.2e-5 135.519,37.40301 90.032993,54.36701 30.661993,54.36701 30.661993,151.772 10.506993,291.304 173.979,347.971 337.463,291.305 317.309,151.773 317.309,54.36701 Z M 162.107,225.773 114.35799,178.017 135.737,156.639 l 26.37,26.376 50.121,-50.122 21.378,21.378 z"
     id="path833-5-2"
     style="display:inline;fill:url(#radialGradient982);fill-opacity:1" /></g></svg>
